<mxfile host="app.diagrams.net" modified="2023-12-20T18:45:07.278Z" agent="Mozilla/5.0 (Windows NT 10.0; Win64; x64) AppleWebKit/537.36 (KHTML, like Gecko) Chrome/120.0.0.0 Safari/537.36" etag="YSZXBhBn8q3Wav9xTIjf" version="22.1.11" type="device">
  <diagram name="Страница — 1" id="W3U4VgXfawO97cUqP1vP">
    <mxGraphModel dx="1635" dy="1055" grid="0" gridSize="10" guides="1" tooltips="1" connect="1" arrows="1" fold="1" page="0" pageScale="1" pageWidth="827" pageHeight="1169" math="0" shadow="0">
      <root>
        <mxCell id="0" />
        <mxCell id="1" parent="0" />
        <mxCell id="8Z9fV7Etpj4QwyG1-m5O-5" value="Авторизированный пользователь" style="shape=umlActor;verticalLabelPosition=bottom;verticalAlign=top;html=1;outlineConnect=0;" parent="1" vertex="1">
          <mxGeometry x="290" y="70" width="30" height="60" as="geometry" />
        </mxCell>
        <mxCell id="8Z9fV7Etpj4QwyG1-m5O-10" value="Просмотр абонементов" style="ellipse;whiteSpace=wrap;html=1;" parent="1" vertex="1">
          <mxGeometry x="50" y="-70" width="120" height="80" as="geometry" />
        </mxCell>
        <mxCell id="8Z9fV7Etpj4QwyG1-m5O-11" value="Просмотр тренеров" style="ellipse;whiteSpace=wrap;html=1;" parent="1" vertex="1">
          <mxGeometry x="50" y="40" width="120" height="80" as="geometry" />
        </mxCell>
        <mxCell id="8Z9fV7Etpj4QwyG1-m5O-14" value="Оставить отзыв" style="ellipse;whiteSpace=wrap;html=1;" parent="1" vertex="1">
          <mxGeometry x="-140" y="10" width="120" height="80" as="geometry" />
        </mxCell>
        <mxCell id="8Z9fV7Etpj4QwyG1-m5O-20" value="Просмотр профиля" style="ellipse;whiteSpace=wrap;html=1;" parent="1" vertex="1">
          <mxGeometry x="170" y="-160" width="120" height="80" as="geometry" />
        </mxCell>
        <mxCell id="8Z9fV7Etpj4QwyG1-m5O-21" value="Изменить имя" style="ellipse;whiteSpace=wrap;html=1;" parent="1" vertex="1">
          <mxGeometry x="-30" y="-190" width="120" height="80" as="geometry" />
        </mxCell>
        <mxCell id="8Z9fV7Etpj4QwyG1-m5O-22" value="Изменить фамилию" style="ellipse;whiteSpace=wrap;html=1;" parent="1" vertex="1">
          <mxGeometry x="20" y="-290" width="120" height="80" as="geometry" />
        </mxCell>
        <mxCell id="8Z9fV7Etpj4QwyG1-m5O-23" value="Изменить логин" style="ellipse;whiteSpace=wrap;html=1;" parent="1" vertex="1">
          <mxGeometry x="150" y="-330" width="120" height="80" as="geometry" />
        </mxCell>
        <mxCell id="8Z9fV7Etpj4QwyG1-m5O-24" value="Изменить почту" style="ellipse;whiteSpace=wrap;html=1;" parent="1" vertex="1">
          <mxGeometry x="285" y="-320" width="120" height="80" as="geometry" />
        </mxCell>
        <mxCell id="8Z9fV7Etpj4QwyG1-m5O-25" value="Изменить телефон" style="ellipse;whiteSpace=wrap;html=1;" parent="1" vertex="1">
          <mxGeometry x="310" y="-230" width="120" height="80" as="geometry" />
        </mxCell>
        <mxCell id="8Z9fV7Etpj4QwyG1-m5O-27" value="" style="endArrow=none;html=1;rounded=0;entryX=1;entryY=0.5;entryDx=0;entryDy=0;exitX=0;exitY=0.5;exitDx=0;exitDy=0;startArrow=classic;startFill=1;endFill=0;dashed=1;" parent="1" source="8Z9fV7Etpj4QwyG1-m5O-20" target="8Z9fV7Etpj4QwyG1-m5O-21" edge="1">
          <mxGeometry width="50" height="50" relative="1" as="geometry">
            <mxPoint x="370" y="30" as="sourcePoint" />
            <mxPoint x="420" y="-20" as="targetPoint" />
          </mxGeometry>
        </mxCell>
        <mxCell id="8Z9fV7Etpj4QwyG1-m5O-28" value="extend" style="edgeLabel;html=1;align=center;verticalAlign=middle;resizable=0;points=[];" parent="8Z9fV7Etpj4QwyG1-m5O-27" vertex="1" connectable="0">
          <mxGeometry x="0.0667" relative="1" as="geometry">
            <mxPoint as="offset" />
          </mxGeometry>
        </mxCell>
        <mxCell id="8Z9fV7Etpj4QwyG1-m5O-29" value="" style="endArrow=none;html=1;rounded=0;entryX=1;entryY=1;entryDx=0;entryDy=0;exitX=0;exitY=0;exitDx=0;exitDy=0;endFill=0;startArrow=classic;startFill=1;dashed=1;" parent="1" source="8Z9fV7Etpj4QwyG1-m5O-20" target="8Z9fV7Etpj4QwyG1-m5O-22" edge="1">
          <mxGeometry width="50" height="50" relative="1" as="geometry">
            <mxPoint x="180" y="-110" as="sourcePoint" />
            <mxPoint x="100" y="-140" as="targetPoint" />
          </mxGeometry>
        </mxCell>
        <mxCell id="8Z9fV7Etpj4QwyG1-m5O-30" value="extend" style="edgeLabel;html=1;align=center;verticalAlign=middle;resizable=0;points=[];" parent="8Z9fV7Etpj4QwyG1-m5O-29" vertex="1" connectable="0">
          <mxGeometry x="0.0667" relative="1" as="geometry">
            <mxPoint as="offset" />
          </mxGeometry>
        </mxCell>
        <mxCell id="8Z9fV7Etpj4QwyG1-m5O-31" value="" style="endArrow=none;html=1;rounded=0;exitX=0.45;exitY=0.023;exitDx=0;exitDy=0;exitPerimeter=0;startArrow=classic;startFill=1;endFill=0;dashed=1;" parent="1" source="8Z9fV7Etpj4QwyG1-m5O-20" target="8Z9fV7Etpj4QwyG1-m5O-23" edge="1">
          <mxGeometry width="50" height="50" relative="1" as="geometry">
            <mxPoint x="198" y="-138" as="sourcePoint" />
            <mxPoint x="132" y="-212" as="targetPoint" />
          </mxGeometry>
        </mxCell>
        <mxCell id="8Z9fV7Etpj4QwyG1-m5O-32" value="extend" style="edgeLabel;html=1;align=center;verticalAlign=middle;resizable=0;points=[];" parent="8Z9fV7Etpj4QwyG1-m5O-31" vertex="1" connectable="0">
          <mxGeometry x="0.0667" relative="1" as="geometry">
            <mxPoint as="offset" />
          </mxGeometry>
        </mxCell>
        <mxCell id="8Z9fV7Etpj4QwyG1-m5O-33" value="" style="endArrow=none;html=1;rounded=0;exitX=0.685;exitY=0.013;exitDx=0;exitDy=0;exitPerimeter=0;entryX=0.07;entryY=0.851;entryDx=0;entryDy=0;entryPerimeter=0;startArrow=classic;startFill=1;endFill=0;dashed=1;" parent="1" source="8Z9fV7Etpj4QwyG1-m5O-20" target="8Z9fV7Etpj4QwyG1-m5O-24" edge="1">
          <mxGeometry width="50" height="50" relative="1" as="geometry">
            <mxPoint x="234" y="-148" as="sourcePoint" />
            <mxPoint x="224" y="-240" as="targetPoint" />
          </mxGeometry>
        </mxCell>
        <mxCell id="8Z9fV7Etpj4QwyG1-m5O-34" value="extend" style="edgeLabel;html=1;align=center;verticalAlign=middle;resizable=0;points=[];" parent="8Z9fV7Etpj4QwyG1-m5O-33" vertex="1" connectable="0">
          <mxGeometry x="0.0667" relative="1" as="geometry">
            <mxPoint as="offset" />
          </mxGeometry>
        </mxCell>
        <mxCell id="8Z9fV7Etpj4QwyG1-m5O-35" value="" style="endArrow=none;html=1;rounded=0;exitX=1;exitY=0;exitDx=0;exitDy=0;entryX=0;entryY=0.5;entryDx=0;entryDy=0;startArrow=classic;startFill=1;endFill=0;dashed=1;" parent="1" source="8Z9fV7Etpj4QwyG1-m5O-20" target="8Z9fV7Etpj4QwyG1-m5O-25" edge="1">
          <mxGeometry width="50" height="50" relative="1" as="geometry">
            <mxPoint x="262" y="-149" as="sourcePoint" />
            <mxPoint x="303" y="-242" as="targetPoint" />
          </mxGeometry>
        </mxCell>
        <mxCell id="8Z9fV7Etpj4QwyG1-m5O-36" value="extend" style="edgeLabel;html=1;align=center;verticalAlign=middle;resizable=0;points=[];" parent="8Z9fV7Etpj4QwyG1-m5O-35" vertex="1" connectable="0">
          <mxGeometry x="0.0667" relative="1" as="geometry">
            <mxPoint as="offset" />
          </mxGeometry>
        </mxCell>
        <mxCell id="8Z9fV7Etpj4QwyG1-m5O-38" value="" style="endArrow=classic;html=1;rounded=0;entryX=0.5;entryY=1;entryDx=0;entryDy=0;exitX=0;exitY=0.3333333333333333;exitDx=0;exitDy=0;exitPerimeter=0;" parent="1" source="8Z9fV7Etpj4QwyG1-m5O-5" target="8Z9fV7Etpj4QwyG1-m5O-20" edge="1">
          <mxGeometry width="50" height="50" relative="1" as="geometry">
            <mxPoint x="350" y="110" as="sourcePoint" />
            <mxPoint x="400" y="60" as="targetPoint" />
          </mxGeometry>
        </mxCell>
        <mxCell id="8Z9fV7Etpj4QwyG1-m5O-39" value="" style="endArrow=classic;html=1;rounded=0;entryX=1;entryY=0.5;entryDx=0;entryDy=0;" parent="1" target="8Z9fV7Etpj4QwyG1-m5O-10" edge="1">
          <mxGeometry width="50" height="50" relative="1" as="geometry">
            <mxPoint x="290" y="90" as="sourcePoint" />
            <mxPoint x="240" y="-70" as="targetPoint" />
          </mxGeometry>
        </mxCell>
        <mxCell id="8Z9fV7Etpj4QwyG1-m5O-40" value="" style="endArrow=classic;html=1;rounded=0;entryX=1;entryY=0.5;entryDx=0;entryDy=0;" parent="1" target="8Z9fV7Etpj4QwyG1-m5O-11" edge="1">
          <mxGeometry width="50" height="50" relative="1" as="geometry">
            <mxPoint x="290" y="90" as="sourcePoint" />
            <mxPoint x="180" y="-20" as="targetPoint" />
          </mxGeometry>
        </mxCell>
        <mxCell id="8Z9fV7Etpj4QwyG1-m5O-43" value="Администратор" style="shape=umlActor;verticalLabelPosition=bottom;verticalAlign=top;html=1;outlineConnect=0;" parent="1" vertex="1">
          <mxGeometry x="470" y="50" width="30" height="60" as="geometry" />
        </mxCell>
        <mxCell id="8Z9fV7Etpj4QwyG1-m5O-53" value="" style="endArrow=none;html=1;rounded=0;entryX=1;entryY=0.5;entryDx=0;entryDy=0;startArrow=classic;startFill=1;endFill=0;dashed=1;" parent="1" source="8Z9fV7Etpj4QwyG1-m5O-11" target="8Z9fV7Etpj4QwyG1-m5O-14" edge="1">
          <mxGeometry width="50" height="50" relative="1" as="geometry">
            <mxPoint x="180" y="-110" as="sourcePoint" />
            <mxPoint x="100" y="-140" as="targetPoint" />
          </mxGeometry>
        </mxCell>
        <mxCell id="8Z9fV7Etpj4QwyG1-m5O-54" value="extend" style="edgeLabel;html=1;align=center;verticalAlign=middle;resizable=0;points=[];" parent="8Z9fV7Etpj4QwyG1-m5O-53" vertex="1" connectable="0">
          <mxGeometry x="0.0667" relative="1" as="geometry">
            <mxPoint as="offset" />
          </mxGeometry>
        </mxCell>
        <mxCell id="jAZWd4yVTZhajnkvL8BO-4" value="" style="endArrow=classic;html=1;rounded=0;exitX=1;exitY=0.3333333333333333;exitDx=0;exitDy=0;exitPerimeter=0;" parent="1" source="8Z9fV7Etpj4QwyG1-m5O-43" target="KGXP2OzLOG1-c9oOaN7d-2" edge="1">
          <mxGeometry width="50" height="50" relative="1" as="geometry">
            <mxPoint x="577" y="83" as="sourcePoint" />
            <mxPoint x="678.9669914110086" y="156.89087296526077" as="targetPoint" />
          </mxGeometry>
        </mxCell>
        <mxCell id="jAZWd4yVTZhajnkvL8BO-6" value="Заморозка &lt;br&gt;абонемента" style="ellipse;whiteSpace=wrap;html=1;" parent="1" vertex="1">
          <mxGeometry x="445" y="-260" width="110" height="90" as="geometry" />
        </mxCell>
        <mxCell id="jAZWd4yVTZhajnkvL8BO-10" value="Оформить абонемент" style="ellipse;whiteSpace=wrap;html=1;" parent="1" vertex="1">
          <mxGeometry x="-140" y="-110" width="120" height="80" as="geometry" />
        </mxCell>
        <mxCell id="jAZWd4yVTZhajnkvL8BO-13" value="" style="endArrow=none;html=1;rounded=0;entryX=0.993;entryY=0.672;entryDx=0;entryDy=0;startArrow=classic;startFill=1;endFill=0;dashed=1;entryPerimeter=0;exitX=0;exitY=0.5;exitDx=0;exitDy=0;" parent="1" source="8Z9fV7Etpj4QwyG1-m5O-10" target="jAZWd4yVTZhajnkvL8BO-10" edge="1">
          <mxGeometry width="50" height="50" relative="1" as="geometry">
            <mxPoint x="63" y="77" as="sourcePoint" />
            <mxPoint x="-10" y="60" as="targetPoint" />
          </mxGeometry>
        </mxCell>
        <mxCell id="jAZWd4yVTZhajnkvL8BO-14" value="extend" style="edgeLabel;html=1;align=center;verticalAlign=middle;resizable=0;points=[];" parent="jAZWd4yVTZhajnkvL8BO-13" vertex="1" connectable="0">
          <mxGeometry x="0.0667" relative="1" as="geometry">
            <mxPoint as="offset" />
          </mxGeometry>
        </mxCell>
        <mxCell id="VKZ0_62k53H5U-dAm6Ey-1" value="Просмотр своих абонементов" style="ellipse;whiteSpace=wrap;html=1;" parent="1" vertex="1">
          <mxGeometry x="350" y="-145" width="120" height="80" as="geometry" />
        </mxCell>
        <mxCell id="VKZ0_62k53H5U-dAm6Ey-2" value="" style="endArrow=none;html=1;rounded=0;exitX=1.008;exitY=0.628;exitDx=0;exitDy=0;entryX=0;entryY=0.5;entryDx=0;entryDy=0;startArrow=classic;startFill=1;endFill=0;dashed=1;exitPerimeter=0;" parent="1" source="8Z9fV7Etpj4QwyG1-m5O-20" target="VKZ0_62k53H5U-dAm6Ey-1" edge="1">
          <mxGeometry width="50" height="50" relative="1" as="geometry">
            <mxPoint x="282" y="-138" as="sourcePoint" />
            <mxPoint x="320" y="-180" as="targetPoint" />
          </mxGeometry>
        </mxCell>
        <mxCell id="VKZ0_62k53H5U-dAm6Ey-3" value="extend" style="edgeLabel;html=1;align=center;verticalAlign=middle;resizable=0;points=[];" parent="VKZ0_62k53H5U-dAm6Ey-2" vertex="1" connectable="0">
          <mxGeometry x="0.0667" relative="1" as="geometry">
            <mxPoint as="offset" />
          </mxGeometry>
        </mxCell>
        <mxCell id="VKZ0_62k53H5U-dAm6Ey-6" value="" style="endArrow=none;html=1;rounded=0;exitX=0.676;exitY=0.033;exitDx=0;exitDy=0;entryX=0.266;entryY=0.967;entryDx=0;entryDy=0;startArrow=classic;startFill=1;endFill=0;dashed=1;exitPerimeter=0;entryPerimeter=0;" parent="1" source="VKZ0_62k53H5U-dAm6Ey-1" target="jAZWd4yVTZhajnkvL8BO-6" edge="1">
          <mxGeometry width="50" height="50" relative="1" as="geometry">
            <mxPoint x="301" y="-100" as="sourcePoint" />
            <mxPoint x="360" y="-95" as="targetPoint" />
          </mxGeometry>
        </mxCell>
        <mxCell id="VKZ0_62k53H5U-dAm6Ey-7" value="extend" style="edgeLabel;html=1;align=center;verticalAlign=middle;resizable=0;points=[];" parent="VKZ0_62k53H5U-dAm6Ey-6" vertex="1" connectable="0">
          <mxGeometry x="0.0667" relative="1" as="geometry">
            <mxPoint as="offset" />
          </mxGeometry>
        </mxCell>
        <mxCell id="KGXP2OzLOG1-c9oOaN7d-2" value="Отправка на почту клиента одобрения/отклонения абонемента" style="ellipse;whiteSpace=wrap;html=1;" vertex="1" parent="1">
          <mxGeometry x="467" y="223" width="150" height="100" as="geometry" />
        </mxCell>
        <mxCell id="KGXP2OzLOG1-c9oOaN7d-3" value="Добавление абонементов" style="ellipse;whiteSpace=wrap;html=1;" vertex="1" parent="1">
          <mxGeometry x="754" y="243" width="120" height="80" as="geometry" />
        </mxCell>
        <mxCell id="KGXP2OzLOG1-c9oOaN7d-4" value="Удаление абонементов" style="ellipse;whiteSpace=wrap;html=1;" vertex="1" parent="1">
          <mxGeometry x="753" y="143" width="120" height="80" as="geometry" />
        </mxCell>
        <mxCell id="KGXP2OzLOG1-c9oOaN7d-5" value="Изменение абонементов" style="ellipse;whiteSpace=wrap;html=1;" vertex="1" parent="1">
          <mxGeometry x="627" y="263" width="120" height="80" as="geometry" />
        </mxCell>
        <mxCell id="KGXP2OzLOG1-c9oOaN7d-6" value="Добавление тренеров" style="ellipse;whiteSpace=wrap;html=1;" vertex="1" parent="1">
          <mxGeometry x="730" y="-50" width="120" height="80" as="geometry" />
        </mxCell>
        <mxCell id="KGXP2OzLOG1-c9oOaN7d-7" value="Удаление &lt;br&gt;тренеров" style="ellipse;whiteSpace=wrap;html=1;" vertex="1" parent="1">
          <mxGeometry x="680" y="-130" width="120" height="80" as="geometry" />
        </mxCell>
        <mxCell id="KGXP2OzLOG1-c9oOaN7d-8" value="Изменение информации о тренерах" style="ellipse;whiteSpace=wrap;html=1;" vertex="1" parent="1">
          <mxGeometry x="540" y="-107" width="120" height="80" as="geometry" />
        </mxCell>
        <mxCell id="KGXP2OzLOG1-c9oOaN7d-9" value="Отказ &lt;br&gt;оформления абонемента" style="ellipse;whiteSpace=wrap;html=1;" vertex="1" parent="1">
          <mxGeometry x="887" y="83" width="120" height="80" as="geometry" />
        </mxCell>
        <mxCell id="KGXP2OzLOG1-c9oOaN7d-10" value="Одобрение оформления абонемента" style="ellipse;whiteSpace=wrap;html=1;" vertex="1" parent="1">
          <mxGeometry x="887" y="-7" width="120" height="80" as="geometry" />
        </mxCell>
        <mxCell id="KGXP2OzLOG1-c9oOaN7d-11" value="" style="endArrow=classic;html=1;rounded=0;exitX=1;exitY=0.3333333333333333;exitDx=0;exitDy=0;exitPerimeter=0;entryX=0.385;entryY=-0.04;entryDx=0;entryDy=0;entryPerimeter=0;" edge="1" parent="1" source="8Z9fV7Etpj4QwyG1-m5O-43" target="KGXP2OzLOG1-c9oOaN7d-5">
          <mxGeometry width="50" height="50" relative="1" as="geometry">
            <mxPoint x="637" y="73" as="sourcePoint" />
            <mxPoint x="572" y="235" as="targetPoint" />
          </mxGeometry>
        </mxCell>
        <mxCell id="KGXP2OzLOG1-c9oOaN7d-12" value="" style="endArrow=classic;html=1;rounded=0;exitX=1;exitY=0.3333333333333333;exitDx=0;exitDy=0;exitPerimeter=0;entryX=0.013;entryY=0.27;entryDx=0;entryDy=0;entryPerimeter=0;" edge="1" parent="1" source="8Z9fV7Etpj4QwyG1-m5O-43" target="KGXP2OzLOG1-c9oOaN7d-3">
          <mxGeometry width="50" height="50" relative="1" as="geometry">
            <mxPoint x="637" y="73" as="sourcePoint" />
            <mxPoint x="683" y="270" as="targetPoint" />
          </mxGeometry>
        </mxCell>
        <mxCell id="KGXP2OzLOG1-c9oOaN7d-13" value="" style="endArrow=classic;html=1;rounded=0;exitX=1;exitY=0.3333333333333333;exitDx=0;exitDy=0;exitPerimeter=0;" edge="1" parent="1" source="8Z9fV7Etpj4QwyG1-m5O-43" target="KGXP2OzLOG1-c9oOaN7d-4">
          <mxGeometry width="50" height="50" relative="1" as="geometry">
            <mxPoint x="657" y="63" as="sourcePoint" />
            <mxPoint x="683" y="270" as="targetPoint" />
          </mxGeometry>
        </mxCell>
        <mxCell id="KGXP2OzLOG1-c9oOaN7d-17" value="" style="endArrow=classic;html=1;rounded=0;exitX=1;exitY=0.3333333333333333;exitDx=0;exitDy=0;exitPerimeter=0;entryX=0;entryY=1;entryDx=0;entryDy=0;" edge="1" parent="1" source="8Z9fV7Etpj4QwyG1-m5O-43" target="KGXP2OzLOG1-c9oOaN7d-8">
          <mxGeometry width="50" height="50" relative="1" as="geometry">
            <mxPoint x="510" y="80" as="sourcePoint" />
            <mxPoint x="770" y="174" as="targetPoint" />
          </mxGeometry>
        </mxCell>
        <mxCell id="KGXP2OzLOG1-c9oOaN7d-18" value="" style="endArrow=classic;html=1;rounded=0;exitX=1;exitY=0.3333333333333333;exitDx=0;exitDy=0;exitPerimeter=0;entryX=0.262;entryY=0.926;entryDx=0;entryDy=0;entryPerimeter=0;" edge="1" parent="1" source="8Z9fV7Etpj4QwyG1-m5O-43" target="KGXP2OzLOG1-c9oOaN7d-7">
          <mxGeometry width="50" height="50" relative="1" as="geometry">
            <mxPoint x="510" y="80" as="sourcePoint" />
            <mxPoint x="630" y="-29" as="targetPoint" />
          </mxGeometry>
        </mxCell>
        <mxCell id="KGXP2OzLOG1-c9oOaN7d-19" value="" style="endArrow=classic;html=1;rounded=0;exitX=1;exitY=0.3333333333333333;exitDx=0;exitDy=0;exitPerimeter=0;" edge="1" parent="1" source="8Z9fV7Etpj4QwyG1-m5O-43" target="KGXP2OzLOG1-c9oOaN7d-6">
          <mxGeometry width="50" height="50" relative="1" as="geometry">
            <mxPoint x="510" y="80" as="sourcePoint" />
            <mxPoint x="758" y="-63" as="targetPoint" />
          </mxGeometry>
        </mxCell>
        <mxCell id="KGXP2OzLOG1-c9oOaN7d-20" value="" style="endArrow=classic;html=1;rounded=0;exitX=1;exitY=0.3333333333333333;exitDx=0;exitDy=0;exitPerimeter=0;entryX=0;entryY=0.5;entryDx=0;entryDy=0;" edge="1" parent="1" source="8Z9fV7Etpj4QwyG1-m5O-43" target="KGXP2OzLOG1-c9oOaN7d-10">
          <mxGeometry width="50" height="50" relative="1" as="geometry">
            <mxPoint x="510" y="80" as="sourcePoint" />
            <mxPoint x="745" y="15" as="targetPoint" />
          </mxGeometry>
        </mxCell>
        <mxCell id="KGXP2OzLOG1-c9oOaN7d-21" value="" style="endArrow=classic;html=1;rounded=0;exitX=1;exitY=0.3333333333333333;exitDx=0;exitDy=0;exitPerimeter=0;" edge="1" parent="1" source="8Z9fV7Etpj4QwyG1-m5O-43" target="KGXP2OzLOG1-c9oOaN7d-9">
          <mxGeometry width="50" height="50" relative="1" as="geometry">
            <mxPoint x="510" y="80" as="sourcePoint" />
            <mxPoint x="897" y="43" as="targetPoint" />
          </mxGeometry>
        </mxCell>
      </root>
    </mxGraphModel>
  </diagram>
</mxfile>
